<?xml version="1.0" encoding="utf-8"?>
<!-- Generator: Adobe Illustrator 24.0.1, SVG Export Plug-In . SVG Version: 6.00 Build 0)  -->
<svg version="1.1" id="Capa_1" xmlns="http://www.w3.org/2000/svg" xmlns:xlink="http://www.w3.org/1999/xlink" x="0px" y="0px"
	 viewBox="0 0 4251.97 2395.97" style="enable-background:new 0 0 4251.97 2395.97;" xml:space="preserve">
<style type="text/css">
	.st0{fill:#0F0F0F;}
	.st1{fill:#FFFFFF;}
</style>
<ellipse class="st0" cx="700.46" cy="571.44" rx="435.94" ry="435.72"/>
<g>
	<path class="st1" d="M686.61,330.81c-0.04,21.34-14.12,36.36-33.94,36.22c-19.68-0.15-33.73-15.48-33.65-36.73
		c0.09-21.08,14.62-36.58,34.14-36.39C672.62,294.09,686.65,309.58,686.61,330.81z"/>
	<path class="st1" d="M789.71,330.89c1.87,21.52-16.07,36.54-33.72,36.2c-19.77-0.39-33.37-15.18-33.33-36.83
		c0.04-21.28,14.35-36.74,33.97-36.31C775.52,294.36,791.73,309.83,789.71,330.89z"/>
	<g>
		<path class="st1" d="M526.02,381.6h68.43v120.34c0.39,74.36,20.95,123.18,61.67,146.47c13.11,5.48,25.35,8.22,36.71,8.22h4.7
			c24.08,0,47.38-10.27,69.89-30.82c15.07-16.83,24.86-36.4,29.37-58.7c3.52-12.72,5.29-36.2,5.29-70.44V381.6h68.13v110.36
			c0,57.53-5.19,97.94-15.57,121.22c-6.27,16.05-15.08,31.8-26.43,47.26c-21.54,28.18-52.38,47.94-92.51,59.29
			c-11.94,3.52-23.49,5.28-34.65,5.28H689.3c-32.89,0-64.22-11.74-93.97-35.22c-46.21-40.51-69.31-104.39-69.31-191.67V381.6z"/>
	</g>
</g>
<path class="st0" d="M704.84,1281.94c-240.77,0-435.94,195.08-435.94,435.72c0,240.64,195.18,435.72,435.94,435.72
	s435.94-195.08,435.94-435.72C1140.78,1477.02,945.6,1281.94,704.84,1281.94z M763.36,1502.15c18.89,0.41,35.1,15.88,33.08,36.95
	c1.87,21.52-16.07,36.54-33.72,36.2c-19.77-0.39-33.37-15.18-33.33-36.83C729.43,1517.19,743.74,1501.73,763.36,1502.15z
	 M659.89,1502.11c19.45,0.19,33.49,15.67,33.44,36.91c-0.04,21.34-14.12,36.36-33.94,36.22c-19.68-0.15-33.73-15.48-33.65-36.73
	C625.83,1517.42,640.37,1501.92,659.89,1502.11z M876.93,1700.17c0,57.53-5.19,97.94-15.57,121.22
	c-6.27,16.05-15.08,31.8-26.43,47.26c-21.54,28.18-52.38,47.94-92.51,59.29c-11.94,3.52-23.49,5.28-34.65,5.28h-11.75
	c-32.89,0-64.22-11.74-93.97-35.22c-46.21-40.51-69.31-104.39-69.31-191.67v-116.53h68.43v120.34
	c0.39,74.36,20.95,123.18,61.67,146.47c13.11,5.48,25.35,8.22,36.71,8.22h4.7c24.08,0,47.38-10.27,69.89-30.82
	c15.07-16.83,24.86-36.4,29.37-58.7c3.52-12.72,5.29-36.2,5.29-70.44v-115.06h68.13V1700.17z"/>
<g>
	<path class="st1" d="M549.86,763.23h15.38v38.98l0,0v15.37l0,0v61.8h-15.38v-61.8l0,0v-15.37l0,0V763.23z"/>
	<path class="st1" d="M589.11,802.21h15.38v27.04c0.09,16.71,4.71,27.68,13.86,32.91c2.95,1.23,5.7,1.85,8.25,1.85h1.06
		c5.41,0,10.65-2.31,15.71-6.93c3.39-3.78,5.59-8.18,6.6-13.19c0.79-2.86,1.19-8.13,1.19-15.83v-25.86h15.31v24.8
		c0,12.93-1.17,22.01-3.5,27.24c-1.41,3.61-3.39,7.15-5.94,10.62c-4.84,6.33-11.77,10.77-20.79,13.32
		c-2.68,0.79-5.28,1.19-7.79,1.19h-2.64c-7.39,0-14.43-2.64-21.12-7.91c-10.38-9.1-15.57-23.46-15.57-43.07V802.21z"/>
	<path class="st1" d="M678.12,802.21h15.38v27.04c0.09,16.71,4.71,27.68,13.86,32.91c2.95,1.23,5.7,1.85,8.25,1.85h1.06
		c5.41,0,10.65-2.31,15.71-6.93c3.39-3.78,5.59-8.18,6.6-13.19c0.79-2.86,1.19-8.13,1.19-15.83v-25.86h15.31v24.8
		c0,12.93-1.17,22.01-3.5,27.24c-1.41,3.61-3.39,7.15-5.94,10.62c-4.84,6.33-11.77,10.77-20.79,13.32
		c-2.68,0.79-5.28,1.19-7.79,1.19h-2.64c-7.39,0-14.43-2.64-21.12-7.91c-10.38-9.1-15.57-23.46-15.57-43.07V802.21z"/>
	<path class="st1" d="M767.13,763.56h15.38v115.82h-15.38V763.56z"/>
	<path class="st1" d="M832.84,802.21c8.27,0,15.92,2.53,22.96,7.59h0.2v-7.59h15.38v77.17H856v-7.59
		c-7.17,5.06-14.5,7.59-21.97,7.59h-2.05c-11.57,0-21.58-5.06-30.02-15.17c-5.19-7.3-7.79-15.08-7.79-23.35
		c0-12.8,5.52-23.37,16.56-31.72C817.55,804.52,824.92,802.21,832.84,802.21z M809.55,840.73c0,8.62,4.11,15.48,12.34,20.58
		c3.48,1.8,7.02,2.7,10.62,2.7h0.99c7,0,13.09-3.25,18.28-9.76c2.81-4.26,4.22-8.49,4.22-12.66v-1.06c0-8.05-3.83-14.62-11.48-19.72
		c-3.92-2.15-7.85-3.23-11.81-3.23c-7.39,0-13.64,3.25-18.74,9.76C811.02,831.69,809.55,836.15,809.55,840.73z"/>
	<rect x="526.25" y="762.63" class="st1" width="64.86" height="14.25"/>
</g>
<g>
	<g>
		<path class="st0" d="M1900.01,366.93c-0.06,27.48-18.19,46.83-43.71,46.64c-25.35-0.19-43.44-19.94-43.33-47.3
			c0.11-27.15,18.83-47.11,43.97-46.87C1882,319.64,1900.07,339.59,1900.01,366.93z"/>
		<path class="st0" d="M2032.79,367.03c2.41,27.71-20.7,47.06-43.43,46.61c-25.45-0.5-42.97-19.55-42.92-47.43
			c0.06-27.41,18.48-47.31,43.74-46.76C2014.51,319.98,2035.38,339.91,2032.79,367.03z"/>
		<g>
			<path class="st0" d="M1693.21,432.33h88.12v154.97c0.5,95.76,26.98,158.63,79.42,188.61c16.89,7.06,32.65,10.58,47.27,10.58h6.05
				c31.01,0,61.01-13.23,90.01-39.69c19.41-21.67,32.01-46.87,37.82-75.6c4.54-16.38,6.81-46.62,6.81-90.72V432.33h87.74v142.12
				c0,74.08-6.68,126.12-20.04,156.11c-8.07,20.67-19.42,40.95-34.03,60.85c-27.74,36.29-67.45,61.74-119.12,76.35
				c-15.38,4.54-30.25,6.8-44.63,6.8h-15.13c-42.36,0-82.7-15.12-121.02-45.36c-59.5-52.16-89.25-134.43-89.25-246.82V432.33z"/>
		</g>
	</g>
	<g>
		<path class="st0" d="M1723.91,923.77h19.8v50.2l0,0v19.79l0,0v79.58h-19.8v-79.58l0,0v-19.79l0,0V923.77z"/>
		<path class="st0" d="M1774.46,973.97h19.8v34.82c0.11,21.52,6.06,35.64,17.85,42.38c3.8,1.59,7.34,2.38,10.62,2.38h1.36
			c6.97,0,13.71-2.97,20.22-8.92c4.36-4.87,7.19-10.53,8.5-16.99c1.02-3.68,1.53-10.47,1.53-20.38v-33.29h19.71v31.94
			c0,16.65-1.5,28.34-4.5,35.08c-1.81,4.64-4.36,9.2-7.65,13.68c-6.23,8.15-15.15,13.87-26.77,17.16c-3.46,1.02-6.8,1.53-10.03,1.53
			h-3.4c-9.52,0-18.58-3.4-27.19-10.19c-13.37-11.72-20.05-30.21-20.05-55.46V973.97z"/>
		<path class="st0" d="M1889.08,973.97h19.8v34.82c0.11,21.52,6.06,35.64,17.85,42.38c3.79,1.59,7.34,2.38,10.62,2.38h1.36
			c6.97,0,13.71-2.97,20.22-8.92c4.36-4.87,7.19-10.53,8.5-16.99c1.02-3.68,1.53-10.47,1.53-20.38v-33.29h19.72v31.94
			c0,16.65-1.5,28.34-4.51,35.08c-1.81,4.64-4.36,9.2-7.65,13.68c-6.23,8.15-15.16,13.87-26.77,17.16
			c-3.46,1.02-6.8,1.53-10.03,1.53h-3.4c-9.52,0-18.58-3.4-27.19-10.19c-13.37-11.72-20.05-30.21-20.05-55.46V973.97z"/>
		<path class="st0" d="M2003.7,924.2h19.8v149.14h-19.8V924.2z"/>
		<path class="st0" d="M2088.33,973.97c10.65,0,20.51,3.26,29.57,9.77h0.26v-9.77h19.8v99.37h-19.8v-9.77
			c-9.23,6.51-18.67,9.77-28.3,9.77h-2.63c-14.9,0-27.79-6.51-38.66-19.54c-6.68-9.4-10.03-19.42-10.03-30.07
			c0-16.48,7.11-30.1,21.33-40.85C2068.64,976.94,2078.13,973.97,2088.33,973.97z M2058.33,1023.57c0,11.1,5.3,19.93,15.89,26.5
			c4.47,2.32,9.04,3.48,13.68,3.48h1.27c9.01,0,16.85-4.19,23.54-12.57c3.62-5.49,5.44-10.93,5.44-16.31v-1.36
			c0-10.36-4.93-18.83-14.79-25.4c-5.04-2.77-10.11-4.16-15.21-4.16c-9.52,0-17.56,4.19-24.13,12.57
			C2060.23,1011.94,2058.33,1017.68,2058.33,1023.57z"/>
		<rect x="1693.51" y="923" class="st0" width="83.52" height="18.35"/>
	</g>
</g>
<g>
	<path class="st0" d="M2674.12,400.86h60.89v154.37l0,0v60.86l0,0v244.74h-60.89V616.08l0,0v-60.86l0,0V400.86z"/>
	<path class="st0" d="M2829.57,555.22h60.89v107.09c0.35,66.17,18.64,109.62,54.88,130.34c11.67,4.88,22.56,7.31,32.66,7.31h4.18
		c21.43,0,42.16-9.14,62.2-27.43c13.41-14.97,22.12-32.39,26.13-52.24c3.14-11.32,4.71-32.21,4.71-62.69V555.22h60.63v98.21
		c0,51.19-4.62,87.15-13.85,107.87c-5.57,14.28-13.42,28.3-23.52,42.05c-19.17,25.07-46.6,42.66-82.32,52.76
		c-10.63,3.13-20.91,4.7-30.84,4.7h-10.45c-29.27,0-57.14-10.45-83.62-31.34c-41.12-36.05-61.67-92.9-61.67-170.56V555.22z"/>
	<path class="st0" d="M3182.06,555.22h60.89v107.09c0.35,66.17,18.64,109.62,54.88,130.34c11.67,4.88,22.56,7.31,32.67,7.31h4.18
		c21.43,0,42.16-9.14,62.2-27.43c13.41-14.97,22.12-32.39,26.13-52.24c3.14-11.32,4.7-32.21,4.7-62.69V555.22h60.63v98.21
		c0,51.19-4.62,87.15-13.86,107.87c-5.57,14.28-13.42,28.3-23.52,42.05c-19.17,25.07-46.61,42.66-82.32,52.76
		c-10.63,3.13-20.91,4.7-30.84,4.7h-10.45c-29.27,0-57.14-10.45-83.62-31.34c-41.12-36.05-61.67-92.9-61.67-170.56V555.22z"/>
	<path class="st0" d="M3534.55,402.17h60.89v458.66h-60.89V402.17z"/>
	<path class="st0" d="M3794.79,555.22c32.75,0,63.06,10.02,90.94,30.04h0.78v-30.04h60.89v305.6h-60.89v-30.04
		c-28.4,20.03-57.41,30.04-87.02,30.04h-8.1c-45.82,0-85.45-20.02-118.9-60.08c-20.56-28.9-30.83-59.72-30.83-92.46
		c0-50.67,21.86-92.55,65.59-125.64C3734.25,564.37,3763.43,555.22,3794.79,555.22z M3702.54,707.76c0,34.13,16.29,61.3,48.87,81.49
		c13.76,7.14,27.79,10.71,42.07,10.71h3.92c27.7,0,51.83-12.89,72.39-38.66c11.15-16.89,16.72-33.6,16.72-50.15v-4.18
		c0-31.86-15.16-57.9-45.47-78.1c-15.51-8.53-31.1-12.8-46.78-12.8c-29.27,0-54.01,12.89-74.22,38.66
		C3708.38,671.98,3702.54,689.65,3702.54,707.76z"/>
	<rect x="2580.63" y="398.49" class="st0" width="256.85" height="56.44"/>
</g>
</svg>
