<svg width="73" height="73" viewBox="0 0 873 873" fill="none" xmlns="http://www.w3.org/2000/svg">
<path d="M436.46 872.16C677.223 872.16 872.4 677.082 872.4 436.44C872.4 195.798 677.223 0.720001 436.46 0.720001C195.697 0.720001 0.52002 195.798 0.52002 436.44C0.52002 677.082 195.697 872.16 436.46 872.16Z" fill="#0F0F0F"/>
<path d="M422.61 195.81C422.57 217.15 408.49 232.17 388.67 232.03C368.99 231.88 354.94 216.55 355.02 195.3C355.11 174.22 369.64 158.72 389.16 158.91C408.62 159.09 422.65 174.58 422.61 195.81Z" fill="white"/>
<path d="M525.71 195.89C527.58 217.41 509.64 232.43 491.99 232.09C472.22 231.7 458.62 216.91 458.66 195.26C458.7 173.98 473.01 158.52 492.63 158.95C511.52 159.36 527.73 174.83 525.71 195.89Z" fill="white"/>
<path d="M262.02 246.6H330.45V366.94C330.84 441.3 351.4 490.12 392.12 513.41C405.23 518.89 417.47 521.63 428.83 521.63H433.53C457.61 521.63 480.91 511.36 503.42 490.81C518.49 473.98 528.28 454.41 532.79 432.11C536.31 419.39 538.08 395.91 538.08 361.67V246.6H606.21V356.96C606.21 414.49 601.02 454.9 590.64 478.18C584.37 494.23 575.56 509.98 564.21 525.44C542.67 553.62 511.83 573.38 471.7 584.73C459.76 588.25 448.21 590.01 437.05 590.01H425.3C392.41 590.01 361.08 578.27 331.33 554.79C285.12 514.28 262.02 450.4 262.02 363.12V246.6Z" fill="white"/>
<path d="M285.86 628.23H301.24V667.21V682.58V744.38H285.86V682.58V667.21V628.23Z" fill="white"/>
<path d="M325.11 667.21H340.49V694.25C340.58 710.96 345.2 721.93 354.35 727.16C357.3 728.39 360.05 729.01 362.6 729.01H363.66C369.07 729.01 374.31 726.7 379.37 722.08C382.76 718.3 384.96 713.9 385.97 708.89C386.76 706.03 387.16 700.76 387.16 693.06V667.2H402.47V692C402.47 704.93 401.3 714.01 398.97 719.24C397.56 722.85 395.58 726.39 393.03 729.86C388.19 736.19 381.26 740.63 372.24 743.18C369.56 743.97 366.96 744.37 364.45 744.37H361.81C354.42 744.37 347.38 741.73 340.69 736.46C330.31 727.36 325.12 713 325.12 693.39V667.21H325.11Z" fill="white"/>
<path d="M414.12 667.21H429.5V694.25C429.59 710.96 434.21 721.93 443.36 727.16C446.31 728.39 449.06 729.01 451.61 729.01H452.67C458.08 729.01 463.32 726.7 468.38 722.08C471.77 718.3 473.97 713.9 474.98 708.89C475.77 706.03 476.17 700.76 476.17 693.06V667.2H491.48V692C491.48 704.93 490.31 714.01 487.98 719.24C486.57 722.85 484.59 726.39 482.04 729.86C477.2 736.19 470.27 740.63 461.25 743.18C458.57 743.97 455.97 744.37 453.46 744.37H450.82C443.43 744.37 436.39 741.73 429.7 736.46C419.32 727.36 414.13 713 414.13 693.39V667.21H414.12Z" fill="white"/>
<path d="M503.13 628.56H518.51V744.38H503.13V628.56Z" fill="white"/>
<path d="M568.84 668.21C577.11 668.21 584.76 670.74 591.8 675.8H592V668.21H607.38V745.38H592V737.79C584.83 742.85 577.5 745.38 570.03 745.38H567.98C556.41 745.38 546.4 740.32 537.96 730.21C532.77 722.91 530.17 715.13 530.17 706.86C530.17 694.06 535.69 683.49 546.73 675.14C553.55 670.52 560.92 668.21 568.84 668.21ZM545.55 706.73C545.55 715.35 549.66 722.21 557.89 727.31C561.37 729.11 564.91 730.01 568.51 730.01H569.5C576.5 730.01 582.59 726.76 587.78 720.25C590.59 715.99 592 711.76 592 707.59V706.53C592 698.48 588.17 691.91 580.52 686.81C576.6 684.66 572.67 683.58 568.71 683.58C561.32 683.58 555.07 686.83 549.97 693.34C547.02 697.69 545.55 702.15 545.55 706.73Z" fill="white"/>
<path d="M327.11 627.63H262.25V641.88H327.11V627.63Z" fill="white"/>
</svg>
